PathFileType	4	(X/Y/Z)	C:/Users/opensim2020/Desktop/walking_exp_matlab/subject06_walking15_straight_02.trc																																																																																																																																											
DataRate	CameraRate	NumFrames	NumMarkers	Units	OrigDataRate	OrigDataStartFrame	OrigNumFrames																																																																																																																																							
100	100	8	47	mm	100	1682	218																																																																																																																																							
Frame#	Time	LFHD			RFHD			LBHD			RBHD			C7			T10			CLAV			STRN			RBAK			LSHO			LUPA			LELB			LFRM			LWRA			LWRB			LFIN			RSHO			RUPA			RELB			RFRM			RWRA			RWRB			RFIN			LASI			RASI			LPSI			RPSI			LTHI			LKNE			LTIB			LANK			LHEE			LTOE			RTHI			RKNE			RTIB			RANK			RHEE			RTOE			*39			*40			*41			*42			*43			*44			*45			*46		
		X1	Y1	Z1	X2	Y2	Z2	X3	Y3	Z3	X4	Y4	Z4	X5	Y5	Z5	X6	Y6	Z6	X7	Y7	Z7	X8	Y8	Z8	X9	Y9	Z9	X10	Y10	Z10	X11	Y11	Z11	X12	Y12	Z12	X13	Y13	Z13	X14	Y14	Z14	X15	Y15	Z15	X16	Y16	Z16	X17	Y17	Z17	X18	Y18	Z18	X19	Y19	Z19	X20	Y20	Z20	X21	Y21	Z21	X22	Y22	Z22	X23	Y23	Z23	X24	Y24	Z24	X25	Y25	Z25	X26	Y26	Z26	X27	Y27	Z27	X28	Y28	Z28	X29	Y29	Z29	X30	Y30	Z30	X31	Y31	Z31	X32	Y32	Z32	X33	Y33	Z33	X34	Y34	Z34	X35	Y35	Z35	X36	Y36	Z36	X37	Y37	Z37	X38	Y38	Z38	X39	Y39	Z39	X40	Y40	Z40	X41	Y41	Z41	X42	Y42	Z42	X43	Y43	Z43	X44	Y44	Z44	X45	Y45	Z45	X46	Y46	Z46	X47	Y47	Z47
																																																																																																																																														
191	1.9	593.41705	1648.29663	905.58398	605.54138	1645.66919	1036.91223	460.54938	1594.22571	921.22809	474.76831	1596.78662	1050.30212	466.50613	1436.10535	982.1098	449.8992	1104.87122	1000.47327	580.62262	1364.64856	982.31995	629.9245	1193.56189	986.62201	402.79004	1265.42102	1068.42102	518.47131	1387.29321	820.58093	483.05304	1187.479	757.25995	454.19131	1078.35376	751.92578	444.66293	929.08081	728.94501	485.4675	803.46643	761.69116	420.40228	811.95386	735.61945	440.59604	723.64117	730.25885	533.93488	1401.73157	1142.84167	507.23422	1207.36865	1240.93372	530.51233	1089.19226	1256.11267	593.90906	989.24048	1264.84961	707.76843	901.25708	1214.73413	665.19617	873.104	1257.73743	734.42188	827.15533	1251.5929	643.98193	963.31409	903.30719	625.41241	958.91425	1118.96265	483.90485	976.59131	916.54187	477.44312	974.50592	1083.68323	635.61426	646.50598	837.38513	670.66565	488.52173	866.63495	672.58484	230.16963	881.23273	688.53839	61.88548	930.44019	651.73853	48.85968	978.67566	833.90289	37.01699	931.05695	559.88129	613.79657	1168.84204	555.42914	485.94159	1154.22144	364.06335	300.78339	1138.28125	229.61867	173.52315	1092.18665	190.25752	188.72505	1046.78955	298.25079	36.02596	1074.18176	499.22699	1690.76123	971.38153	NaN	NaN	NaN	NaN	NaN	NaN	NaN	NaN	NaN	NaN	NaN	NaN	NaN	NaN	NaN	NaN	NaN	NaN	NaN	NaN	NaN
192	1.91	603.01904	1648.99414	904.03748	615.22998	1646.71936	1035.43835	470.1192	1594.96594	919.92932	484.37204	1598.05762	1049.06152	476.586	1436.05347	981.35645	460.46622	1105.72864	999.2243	590.69037	1365.85168	981.36462	640.53711	1194.85352	985.82666	412.89758	1266.01868	1067.42798	528.76233	1388.38525	819.71136	495.04431	1188.34949	755.97809	467.15005	1078.94922	750.61218	460.23575	929.39758	727.65466	502.76883	804.56445	761.1214	437.7066	811.84009	734.44806	459.56433	723.89148	729.70093	543.43085	1402.896	1141.72083	517.38806	1208.58887	1239.98975	539.5592	1090.02368	1254.53992	601.3681	988.82593	1263.78381	713.67633	898.11273	1213.92969	670.60107	871.30273	1257.31226	738.74487	823.55591	1251.11877	654.70483	964.31891	902.02124	635.68268	959.70984	1117.6842	494.70227	977.80286	915.34827	487.85358	975.05939	1082.46338	643.68433	646.96375	836.45258	676.11053	488.20181	865.72968	674.341	229.95448	881.54456	689.05481	61.91874	930.94971	652.10144	49.07975	979.13068	834.48352	36.4266	931.27435	575.09857	613.92053	1169.35596	573.93323	486.00256	1155.83179	381.62643	305.67966	1139.8446	243.84784	182.59599	1093.07288	205.70168	200.2585	1047.78943	304.14569	40.10493	1074.99487	508.86401	1691.68005	969.73743	NaN	NaN	NaN	NaN	NaN	NaN	NaN	NaN	NaN	NaN	NaN	NaN	NaN	NaN	NaN	NaN	NaN	NaN	NaN	NaN	NaN
193	1.92	612.48724	1649.74243	902.53802	624.73895	1647.85486	1033.95581	479.68042	1595.72217	918.62042	493.97958	1599.05688	1047.7124	486.12448	1437.10852	980.08044	471.05658	1106.17517	998.09375	600.47949	1366.86877	980.53577	650.83447	1195.979	984.97162	422.73364	1266.62646	1066.48132	538.88031	1389.37158	818.70331	507.08862	1189.10486	754.67377	480.44275	1079.36499	749.06812	475.90436	929.57654	726.35181	520.61194	805.63428	760.47137	455.42502	811.70703	733.55127	479.11789	724.02539	729.07404	552.86725	1403.73645	1140.76624	526.69244	1209.39893	1238.87659	548.3941	1090.50513	1253.26819	608.75916	988.20886	1262.6377	719.32678	894.81396	1213.19763	675.75269	869.23688	1256.92993	742.89288	819.82733	1250.66467	665.18103	965.16132	901.03931	645.94403	960.69647	1116.77332	505.31509	978.75409	914.03998	497.87509	975.4693	1081.20911	650.91266	647.2124	835.68335	680.71271	487.83029	864.72614	675.72095	229.88464	881.62671	689.48621	61.9781	931.33441	652.3255	49.18814	979.43555	834.93671	36.00848	931.42206	590.17639	614.12921	1169.67786	592.7583	486.28708	1156.8927	399.56409	309.91824	1140.828	259.39282	191.26216	1094.08301	222.35278	211.01222	1048.81262	311.49493	44.41465	1076.38586	518.34564	1692.5343	968.21582	NaN	NaN	NaN	NaN	NaN	NaN	NaN	NaN	NaN	NaN	NaN	NaN	NaN	NaN	NaN	NaN	NaN	NaN	NaN	NaN	NaN
194	1.93	621.89966	1650.60779	901.14679	634.26923	1649.12415	1032.53918	489.07678	1596.38147	917.45227	503.61084	1600.14185	1046.56433	495.80206	1438.11108	979.27319	481.24139	1107.00354	996.58533	610.3479	1367.94885	979.69702	660.93457	1197.01489	984.17505	432.57352	1266.98718	1065.42737	549.02527	1390.28589	817.73969	519.13007	1189.67505	753.37354	493.6926	1079.59351	747.50037	491.77838	929.74445	724.91473	538.87976	806.70929	759.81219	474.03278	811.37659	732.08252	499.22321	724.25812	728.40283	562.36151	1404.35815	1139.94836	536.15918	1209.93896	1238.10571	557.06873	1090.65979	1252.28967	615.74756	987.18585	1261.83728	724.71979	891.2901	1212.60547	680.7594	867.15698	1256.78125	746.90088	815.99866	1250.36426	675.65869	965.71741	899.99634	655.54144	961.32367	1116.18994	515.54089	979.7981	912.92072	507.63123	975.69977	1080.01184	657.44989	647.47528	834.92395	684.68079	487.50104	863.68359	676.65289	229.98636	881.59155	689.64551	62.05898	931.53778	652.42853	49.22195	979.63403	835.1344	35.62295	931.57916	605.05255	614.38184	1169.60266	611.70215	486.87488	1157.54907	419.23624	313.84613	1142.12036	275.71606	199.03935	1094.98145	239.48393	220.31003	1049.54822	320.50381	48.65933	1078.79285	527.64874	1693.40295	966.65027	NaN	NaN	NaN	NaN	NaN	NaN	NaN	NaN	NaN	NaN	NaN	NaN	NaN	NaN	NaN	NaN	NaN	NaN	NaN	NaN	NaN
195	1.94	631.19135	1651.49023	899.70953	643.90833	1650.35388	1031.37207	498.55905	1597.07422	916.41455	513.14679	1601.19031	1045.40283	505.59973	1439.01404	977.79572	491.35638	1107.73218	995.45532	620.05762	1369.01416	978.94818	670.81213	1198.03113	983.31415	442.13998	1267.65417	1063.69495	559.07898	1391.08777	816.70587	531.23523	1190.10498	752.06891	507.03491	1079.7063	745.95831	508.19388	929.69281	723.57465	557.53796	807.86328	759.08344	492.45248	811.01984	731.23242	519.76758	724.46863	727.68121	571.83838	1404.91309	1139.32458	544.92114	1210.17212	1237.12305	565.65302	1090.59961	1251.49011	622.63983	985.98993	1261.09814	729.87732	887.71606	1212.09863	685.44794	864.77289	1256.7749	750.32452	811.96539	1250.01733	685.802	966.30615	899.12317	665.1593	962.08411	1115.71045	525.62909	980.65564	911.84821	517.27753	976.02075	1078.88574	663.57129	647.88354	834.2796	688.65662	487.39603	862.5946	677.44757	230.16695	881.43927	689.73682	62.23769	931.58905	652.42865	49.24566	979.71643	835.513	35.3751	931.62708	619.91418	615.03546	1169.71521	630.54492	487.84192	1157.90247	439.17365	316.54288	1143.12598	292.33603	206.00822	1095.50232	256.90872	227.39716	1049.17871	334.00842	54.48246	1082.12585	536.9917	1694.23291	965.40546	NaN	NaN	NaN	NaN	NaN	NaN	NaN	NaN	NaN	NaN	NaN	NaN	NaN	NaN	NaN	NaN	NaN	NaN	NaN	NaN	NaN
196	1.95	640.47559	1652.36292	898.42456	653.2323	1651.604	1029.8877	507.84845	1597.92957	915.61938	522.74579	1602.12146	1044.41309	515.37549	1439.88916	977.16052	501.47049	1108.2616	994.13843	629.49951	1369.96228	978.29828	680.52917	1199.05994	982.47797	451.71829	1268.2085	1062.36829	569.13214	1391.83716	815.72723	543.38831	1190.44299	750.89563	520.56232	1079.71436	744.38818	524.65155	929.52588	722.53778	576.57861	809.10364	758.39532	511.40317	810.78113	730.26483	541.02429	724.90106	726.76367	581.30212	1405.4519	1138.71533	553.77405	1210.32959	1236.1864	574.17029	1090.43982	1250.72888	629.42218	984.73041	1260.42944	734.71423	884.05176	1211.7356	689.88831	862.31061	1256.51807	753.81134	808.07697	1249.94336	695.69202	966.96265	898.32257	674.60913	962.93158	1115.28784	535.44733	981.50378	910.81689	526.62085	976.3656	1077.90417	670.04767	648.53088	833.34174	692.5683	487.44092	861.64832	678.04059	230.27858	880.97882	689.59479	62.18968	931.75452	652.34369	49.22504	979.69678	835.62396	35.23441	931.62396	634.70007	615.95917	1169.63574	649.13361	489.32327	1158.21802	458.8895	318.89441	1143.83301	309.20413	212.11356	1095.46777	273.80246	232.16498	1048.13611	350.06387	58.54615	1087.15356	546.31348	1695.15503	964.12451	NaN	NaN	NaN	NaN	NaN	NaN	NaN	NaN	NaN	NaN	NaN	NaN	NaN	NaN	NaN	NaN	NaN	NaN	NaN	NaN	NaN
197	1.96	649.72784	1653.25745	897.2168	662.66016	1652.70471	1028.64355	517.18213	1598.68884	914.7218	532.16125	1603.25	1043.52551	524.90912	1441.08398	976.49969	511.2713	1109.09436	992.90729	639.13318	1371.00134	977.61072	690.08655	1200.07959	981.65674	460.98566	1268.89038	1060.96545	579.10455	1392.60413	814.87988	555.66608	1190.82153	749.69592	534.34033	1079.74536	742.78107	541.48553	929.71869	720.98859	595.97858	810.55573	757.62555	530.76544	810.52649	729.18091	562.49109	725.6496	725.93988	590.71027	1405.9646	1138.13379	562.59491	1210.56409	1235.12463	582.71625	1090.3739	1249.80652	636.06805	983.48773	1259.6925	739.12964	880.38348	1211.63538	693.95599	859.79614	1256.50293	756.41571	804.02185	1249.81067	705.42657	967.80316	897.42139	684.26587	963.92633	1114.76807	544.86658	982.42029	910.00885	536.10364	976.737	1077.03711	675.96228	649.15472	833.13812	696.54352	487.59509	860.75037	679.35205	230.45844	880.55621	689.32892	62.24656	931.79626	652.16797	49.14951	979.6026	835.45898	35.07034	931.75677	649.4881	617.30524	1169.40332	667.55383	491.25317	1158.35974	477.84024	321.55496	1144.29224	327.36139	216.61526	1095.55835	291.5047	234.98389	1047.59998	371.7966	64.31784	1091.83582	555.56079	1696.03064	962.95673	NaN	NaN	NaN	NaN	NaN	NaN	NaN	NaN	NaN	NaN	NaN	NaN	NaN	NaN	NaN	NaN	NaN	NaN	NaN	NaN	NaN
198	1.97	658.96405	1654.09375	896.13019	672.02942	1653.62244	1027.52222	526.61096	1599.17627	913.81964	541.74396	1604.0907	1042.66968	534.46753	1441.90771	975.6853	520.47101	1110.0874	991.93085	648.45441	1371.90955	977.00195	699.5484	1201.06445	980.87476	470.3154	1269.82642	1059.30322	588.95599	1393.42163	814.05017	567.94745	1191.26843	748.6593	548.18958	1079.88831	741.33649	558.77252	929.84637	719.94977	615.42102	812.11609	756.96429	550.56421	810.6059	728.06677	584.56073	726.60266	724.92676	599.91089	1406.54407	1137.53088	571.25085	1210.896	1233.96582	591.29498	1090.46423	1248.70032	642.46051	982.36462	1259.07361	743.22565	876.73547	1211.63818	697.49854	857.25098	1256.41504	758.76666	800.17151	1250.10876	714.65729	968.59497	896.6333	693.87567	964.94861	1114.05066	554.14832	983.26404	909.14606	545.59631	977.26331	1076.31812	682.23877	649.82336	832.73364	700.40155	487.63931	859.94958	681.37128	230.57626	879.56726	689.26898	62.29427	931.72913	652.0639	49.15198	979.38025	835.91638	34.90387	931.73767	664.4278	619.1311	1169.1814	685.79529	493.56097	1158.32654	496.31424	324.49493	1144.75378	346.45166	219.23949	1095.99817	309.70096	235.89825	1047.73462	394.84109	69.00988	1095.37341	564.85504	1696.85315	961.90192	NaN	NaN	NaN	NaN	NaN	NaN	NaN	NaN	NaN	NaN	NaN	NaN	NaN	NaN	NaN	NaN	NaN	NaN	NaN	NaN	NaN
